<svg xmlns="http://www.w3.org/2000/svg" width="960px" height="727px" viewBox="0 0 9600 7270" preserveAspectRatio="xMidYMid meet"><g fill="#009fdd"><path d="M2781 7179 c-16-35-53-116-83-179-31-63-145-306-255-540-111-234-239-507-287-607-49-104-86-195-86-212 0-32 16-64 705-1461 213-432 566-1149 785-1595 219-445 526-1069 682-1385 156-316 351-713 433-882 l149-306 17 36 c9 21 93 195 186 387 276 567 1166 2399 1358 2795 98 201 210 433 250 515 40 83 258 533 485 1000 227 468 417 862 422 876 8 23-28 114-267 675-153 357-304 712-337 789-32 77-62 143-66 147-4 3-221-445-482-995-261-551-540-1139-619-1307-80-168-328-689-551-1159-223-470-410-856-416-858-6-2-14 4-17 14-2 10-143 320-312 688-169 369-389 850-490 1070-815 1782-1167 2551-1171 2554-2 2-17-25-33-60z"/><path d="M1691 4797 c-63-172-158-431-212-577-191-521-442-1208-754-2065-612-1680-697-1910-711-1932 l-14-23 737-2 c406-1 753-2 771-1 44 1 77 34 92 91 9 39 702 1885 1008 2687 52 138 95 264 94 280 0 18-171 375-434 910-239 484-440 894-448 912 l-15 32-114-312z"/><path d="M7732 5083 c-5-10-206-404-446-876-240-471-445-872-456-890-11-17-20-44-20-59 0-15 24-96 54-180 30-84 165-466 300-848 454-1290 745-2111 751-2120 4-6 318-10 837-10 787 0 830 1 823 18-9 22-808 2199-1627 4432-110 300-201 547-203 548-2 2-8-5-13-15z"/></g></svg>